<svg width="11" height="7" viewBox="0 0 11 7" fill="none" xmlns="http://www.w3.org/2000/svg">
<path d="M10.2365 0.156953L5.49952 5.73587L0.762546 0.156953C0.677916 0.0570667 0.5643 0.00114501 0.44599 0.00114501C0.32768 0.00114501 0.214064 0.0570667 0.129434 0.156953C0.0884543 0.205464 0.0558984 0.263367 0.0336731 0.32727C0.0114478 0.391174 0 0.459794 0 0.52911C0 0.598426 0.0114478 0.667045 0.0336731 0.730948C0.0558984 0.794852 0.0884543 0.852755 0.129434 0.901266L5.16874 6.83745C5.25724 6.94167 5.37593 7 5.49952 7C5.6231 7 5.74179 6.94167 5.83029 6.83745L10.8696 0.902412C10.9109 0.853864 10.9437 0.795819 10.9661 0.731704C10.9885 0.667588 11 0.598702 11 0.52911C11 0.459518 10.9885 0.390631 10.9661 0.326515C10.9437 0.2624 10.9109 0.204355 10.8696 0.155808C10.785 0.0559211 10.6713 0 10.553 0C10.4347 0 10.3211 0.0559211 10.2365 0.155808V0.156953Z" fill="#808080"/>
</svg>
