<svg width="9" height="9" viewBox="0 0 9 9" fill="none" xmlns="http://www.w3.org/2000/svg">
<path fill-rule="evenodd" clip-rule="evenodd" d="M0.854512 0.119955C0.80803 0.0819243 0.752849 0.0517571 0.692118 0.0311752C0.631387 0.0105934 0.566296 4.00714e-10 0.500561 0C0.434827 -4.00715e-10 0.369736 0.0105934 0.309005 0.0311752C0.248274 0.0517571 0.193092 0.0819243 0.146611 0.119955C0.100129 0.157985 0.0632586 0.203134 0.038103 0.252823C0.0129474 0.302512 -4.89761e-10 0.355768 0 0.409551C4.89761e-10 0.463334 0.0129474 0.51659 0.038103 0.566279C0.0632586 0.615968 0.100129 0.661117 0.146611 0.699147L4.14605 3.97142C4.19249 4.00951 4.24766 4.03973 4.30839 4.06036C4.36913 4.08098 4.43424 4.09159 4.5 4.09159C4.56576 4.09159 4.63087 4.08098 4.69161 4.06036C4.75234 4.03973 4.80751 4.00951 4.85395 3.97142L8.85339 0.699147C8.94726 0.622341 9 0.518171 9 0.409551C9 0.300931 8.94726 0.19676 8.85339 0.119955C8.75952 0.0431489 8.6322 0 8.49944 0C8.36668 0 8.23936 0.0431489 8.14549 0.119955L4.5 3.10345L0.854512 0.119955ZM0.854512 5.02836C0.760638 4.95156 0.633318 4.90841 0.500561 4.90841C0.367804 4.90841 0.240484 4.95156 0.146611 5.02836C0.0527374 5.10517 0 5.20934 0 5.31796C0 5.42658 0.0527374 5.53075 0.146611 5.60756L4.14605 8.87983C4.19249 8.91792 4.24766 8.94814 4.30839 8.96876C4.36913 8.98939 4.43424 9 4.5 9C4.56576 9 4.63087 8.98939 4.69161 8.96876C4.75234 8.94814 4.80751 8.91792 4.85395 8.87983L8.85339 5.60756C8.94726 5.53075 9 5.42658 9 5.31796C9 5.20934 8.94726 5.10517 8.85339 5.02836C8.75952 4.95156 8.6322 4.90841 8.49944 4.90841C8.36668 4.90841 8.23936 4.95156 8.14549 5.02836L4.5 8.01186L0.854512 5.02836Z" fill="#7A7A7A"/>
</svg>
