<svg width="9" height="9" viewBox="0 0 9 9" fill="none" xmlns="http://www.w3.org/2000/svg">
<path fill-rule="evenodd" clip-rule="evenodd" d="M8.14549 3.97164C8.23936 4.04844 8.36668 4.09159 8.49944 4.09159C8.6322 4.09159 8.75952 4.04844 8.85339 3.97164C8.94726 3.89483 9 3.79066 9 3.68204C9 3.57342 8.94726 3.46925 8.85339 3.39244L4.85395 0.120169C4.80751 0.0820772 4.75234 0.0518555 4.69161 0.0312349C4.63087 0.0106143 4.56576 0 4.5 0C4.43424 0 4.36913 0.0106143 4.30839 0.0312349C4.24766 0.0518555 4.19249 0.0820772 4.14605 0.120169L0.146611 3.39244C0.100129 3.43047 0.0632586 3.47562 0.038103 3.52531C0.0129474 3.575 9.79523e-10 3.62826 0 3.68204C-9.79523e-10 3.73582 0.0129474 3.78908 0.038103 3.83877C0.0632586 3.88846 0.100129 3.9336 0.146611 3.97164C0.193092 4.00967 0.248274 4.03983 0.309005 4.06041C0.369736 4.081 0.434827 4.09159 0.500561 4.09159C0.566296 4.09159 0.631387 4.081 0.692118 4.06041C0.752849 4.03983 0.80803 4.00967 0.854512 3.97164L4.5 0.98814L8.14549 3.97164ZM8.14549 8.88005C8.19197 8.91808 8.24715 8.94824 8.30788 8.96882C8.36861 8.98941 8.4337 9 8.49944 9C8.56517 9 8.63026 8.98941 8.691 8.96882C8.75173 8.94824 8.80691 8.91808 8.85339 8.88005C8.89987 8.84202 8.93674 8.79687 8.9619 8.74718C8.98705 8.69749 9 8.64423 9 8.59045C9 8.53667 8.98705 8.48341 8.9619 8.43372C8.93674 8.38403 8.89987 8.33888 8.85339 8.30085L4.85395 5.02858C4.80751 4.99049 4.75234 4.96027 4.69161 4.93965C4.63087 4.91902 4.56576 4.90841 4.5 4.90841C4.43424 4.90841 4.36913 4.91902 4.30839 4.93965C4.24766 4.96027 4.19249 4.99049 4.14605 5.02858L0.146611 8.30085C0.100129 8.33888 0.0632586 8.38403 0.038103 8.43372C0.0129474 8.48341 0 8.53667 0 8.59045C0 8.64423 0.0129474 8.69749 0.038103 8.74718C0.0632586 8.79687 0.100129 8.84202 0.146611 8.88005C0.240484 8.95685 0.367804 9 0.500561 9C0.566296 9 0.631387 8.98941 0.692118 8.96882C0.752849 8.94824 0.80803 8.91808 0.854512 8.88005L4.5 5.89655L8.14549 8.88005Z" fill="#7A7A7A"/>
</svg>
