<svg width="176" height="212" viewBox="0 0 176 212" fill="none" xmlns="http://www.w3.org/2000/svg">
<path d="M160 3V52.8649C160 54.5217 158.657 55.8649 157 55.8649H83.8497C82.7157 55.8649 81.6786 56.5043 81.1693 57.5176L58.6841 102.252C58.2542 103.107 58.2583 104.116 58.6952 104.968L81.1635 148.775C81.677 149.776 82.7077 150.405 83.8329 150.405H157C158.657 150.405 160 151.749 160 153.405V209C160 210.657 158.657 212 157 212H32.2824C30.9338 212 29.7509 211.1 29.3911 209.8L0.226597 104.431C0.0784445 103.896 0.0817867 103.33 0.236249 102.797L29.373 2.16565C29.7444 0.882826 30.9191 0 32.2546 0H157C158.657 0 160 1.34314 160 3Z" fill="#FF4040"/>
<ellipse cx="142" cy="94.5" rx="34" ry="20.5" fill="#FF4040"/>
<rect x="108" y="124" width="52" height="36" rx="3" fill="#FF4040"/>
</svg>
